<svg width="304" height="304" viewBox="0 0 304 304" fill="none" xmlns="http://www.w3.org/2000/svg">
<path d="M148.406 269.29C135.4 250.436 124.361 234.71 114.99 221.361C98.2832 197.563 86.8791 181.317 79.086 168.359C73.0982 158.403 69.5253 150.825 67.3997 143.648C65.2911 136.527 64.5 129.44 64.5 120.333C64.5 72.0082 103.675 32.8333 152 32.8333C200.325 32.8333 239.5 72.0082 239.5 120.333C239.5 129.44 238.709 136.527 236.6 143.648C234.475 150.825 230.902 158.403 224.914 168.359C217.121 181.317 205.717 197.563 189.01 221.361C179.639 234.71 168.599 250.437 155.593 269.292C153.856 271.792 150.141 271.791 148.406 269.29Z" fill="white" stroke="#2F80ED" stroke-width="15"/>
<path d="M156.964 68.9204C189.836 116.575 195.938 121.466 195.938 138.979C195.938 162.969 176.49 182.417 152.5 182.417C128.51 182.417 109.062 162.969 109.063 138.979C109.063 121.466 115.164 116.575 148.036 68.9204C150.193 65.8042 154.807 65.8044 156.964 68.9204Z" fill="#2F80ED"/>
</svg>
