<svg width="128" height="128" viewBox="0 0 128 128" fill="none" xmlns="http://www.w3.org/2000/svg">
<rect width="128" height="128" fill="#D7E3F2"/>
<path d="M96.7387 47.4943C95.9528 44.5351 93.6373 42.2046 90.6973 41.4137C85.3684 39.9766 63.9999 39.9766 63.9999 39.9766C63.9999 39.9766 42.6316 39.9766 37.3025 41.4137C34.3625 42.2047 32.047 44.5351 31.2611 47.4943C29.8333 52.8579 29.8333 64.0485 29.8333 64.0485C29.8333 64.0485 29.8333 75.2392 31.2611 80.6028C32.047 83.5619 34.3625 85.7953 37.3025 86.5862C42.6316 88.0234 63.9999 88.0234 63.9999 88.0234C63.9999 88.0234 85.3682 88.0234 90.6973 86.5862C93.6373 85.7953 95.9528 83.5619 96.7387 80.6028C98.1666 75.2392 98.1666 64.0485 98.1666 64.0485C98.1666 64.0485 98.1666 52.8579 96.7387 47.4943V47.4943ZM57.0112 74.2088V53.8882L74.871 64.0488L57.0112 74.2088V74.2088Z" fill="#2F80ED"/>
</svg>
