<svg width="126" height="126" viewBox="0 0 126 126" fill="none" xmlns="http://www.w3.org/2000/svg">
<circle cx="63" cy="63" r="63" fill="#EAF3FF"/>
<path d="M95.3658 37.4169L66.3004 25.3063C65.4151 24.9391 64.466 24.75 63.5074 24.75C62.5489 24.75 61.5998 24.9391 60.7145 25.3063L31.6491 37.4169C28.9394 38.5371 27.1682 41.1863 27.1682 44.1231C27.1682 74.1724 44.5014 94.942 60.6993 101.694C62.4856 102.435 64.499 102.435 66.2853 101.694C79.2587 96.2893 99.8316 77.6239 99.8316 44.1231C99.8316 41.1863 98.0604 38.5371 95.3658 37.4169ZM63.515 92.308L63.4999 34.6315L90.128 45.7278C89.6284 68.647 77.6995 85.2536 63.515 92.308V92.308Z" fill="#2F80ED"/>
</svg>
