<svg width="126" height="126" viewBox="0 0 126 126" fill="none" xmlns="http://www.w3.org/2000/svg">
<circle cx="63" cy="63" r="63" fill="#EAF3FF"/>
<path d="M101.805 86.0275C100.575 82.8291 96.9611 81.1837 93.6396 82.0449L92.348 82.3832L91.9943 81.0915C91.087 77.8008 87.8425 75.4788 84.4595 76.017C80.5844 76.6321 78.2164 80.4149 79.2313 84.1054L82.7526 96.8069C82.9833 97.6219 83.829 98.114 84.6594 97.8987L97.4224 94.5926C101.128 93.6239 103.22 89.7027 101.805 86.0275V86.0275ZM74.4951 85.4125C73.634 82.2909 74.1414 78.9541 75.879 76.2323C80.446 69.1127 91.0563 69.2357 95.531 76.8935C96.5152 76.9089 97.4686 77.1088 98.3912 77.3395C100.067 73.0492 101.021 68.39 101.021 63.5C101.021 42.4333 83.952 25.3647 62.8853 25.3647C41.8186 25.3647 24.75 42.4333 24.75 63.5C24.75 84.5667 41.8186 101.635 62.8853 101.635C68.3289 101.635 73.4802 100.482 78.1702 98.4215C78.1241 98.3139 74.4951 85.4125 74.4951 85.4125ZM50.5836 61.0397C47.8619 61.0397 45.6629 58.8407 45.6629 56.119C45.6629 53.3972 47.8619 51.1983 50.5836 51.1983C53.3054 51.1983 55.5043 53.3972 55.5043 56.119C55.5043 58.8407 53.3054 61.0397 50.5836 61.0397ZM69.0362 85.028C69.0362 87.9804 64.623 91.4096 58.0415 91.794C56.7345 91.917 56.1809 89.9795 57.488 89.4259L60.1021 88.3187C62.1011 87.473 63.3005 86.2428 63.3005 85.0127C63.3005 83.7825 62.1011 82.5523 60.1021 81.7066L57.488 80.5994C56.5653 80.215 56.6115 78.708 57.488 78.3236L60.1021 77.2164C62.1011 76.3707 63.3005 75.1405 63.3005 73.9104C63.3005 72.6802 62.1011 71.45 60.1021 70.6043L57.488 69.4971C56.1348 68.9282 56.7806 66.9445 58.0415 67.129C64.623 67.5135 69.0362 70.9426 69.0362 73.895C69.0362 75.894 66.9757 78.0929 63.6234 79.4308C66.9757 80.8301 69.0362 83.029 69.0362 85.028ZM71.4965 57.5029C70.2202 58.6408 68.1751 57.5644 68.4519 55.8422C69.067 51.9672 73.7109 49.3684 77.6628 49.3684C81.6147 49.3684 86.2586 51.9672 86.8737 55.8422C87.1351 57.5491 85.1361 58.6562 83.829 57.5029L82.3682 56.1959C80.0924 54.1661 75.264 54.1661 72.9881 56.1959L71.4965 57.5029Z" fill="#2F80ED"/>
</svg>
