<svg width="126" height="126" viewBox="0 0 126 126" fill="none" xmlns="http://www.w3.org/2000/svg">
<circle cx="63" cy="63" r="63" fill="#EAF3FF"/>
<path d="M80.7222 54.8889C80.7222 42.9948 68.1957 33.3611 52.7361 33.3611C37.2765 33.3611 24.75 42.9948 24.75 54.8889C24.75 59.5039 26.6471 63.7557 29.8628 67.2674C28.0599 71.3308 25.0864 74.5599 25.046 74.6003C24.75 74.9098 24.6693 75.3672 24.8442 75.7709C25.0191 76.1745 25.3958 76.4167 25.8264 76.4167C30.7509 76.4167 34.8277 74.7618 37.7609 73.053C42.0933 75.1654 47.2196 76.4167 52.7361 76.4167C68.1957 76.4167 80.7222 66.783 80.7222 54.8889ZM97.1372 84.4896C100.353 80.9914 102.25 76.7262 102.25 72.1111C102.25 63.1098 95.0517 55.4002 84.8529 52.1845C84.974 53.0725 85.0278 53.974 85.0278 54.8889C85.0278 69.1376 70.5369 80.7223 52.7361 80.7223C51.283 80.7223 49.8702 80.6146 48.4709 80.4666C52.7092 88.2032 62.6658 93.6389 74.2639 93.6389C79.7804 93.6389 84.9067 92.4011 89.2392 90.2752C92.1723 91.984 96.2491 93.6389 101.174 93.6389C101.604 93.6389 101.994 93.3833 102.156 92.9931C102.331 92.6029 102.25 92.1454 101.954 91.8225C101.914 91.7822 98.9401 88.5664 97.1372 84.4896Z" fill="#2F80ED"/>
</svg>
