<svg width="126" height="126" viewBox="0 0 126 126" fill="none" xmlns="http://www.w3.org/2000/svg">
<circle cx="63" cy="63" r="63" fill="#EAF3FF"/>
<path d="M100.313 75.125H98.375V62.0348C98.375 60.4969 97.7574 59.0195 96.6676 57.9297L84.5703 45.8324C83.4805 44.7426 82.0031 44.125 80.4652 44.125H75.125V38.3125C75.125 35.1035 72.5215 32.5 69.3125 32.5H38.3125C35.1035 32.5 32.5 35.1035 32.5 38.3125V44.125H25.7188C25.1859 44.125 24.75 44.5609 24.75 45.0937V47.0312C24.75 47.5641 25.1859 48 25.7188 48H58.6563C59.1891 48 59.625 48.4359 59.625 48.9687V50.9062C59.625 51.4391 59.1891 51.875 58.6563 51.875H29.5938C29.0609 51.875 28.625 52.3109 28.625 52.8437V54.7812C28.625 55.3141 29.0609 55.75 29.5938 55.75H54.7813C55.3141 55.75 55.75 56.1859 55.75 56.7187V58.6562C55.75 59.1891 55.3141 59.625 54.7813 59.625H25.7188C25.1859 59.625 24.75 60.0609 24.75 60.5937V62.5312C24.75 63.0641 25.1859 63.5 25.7188 63.5H50.9063C51.4391 63.5 51.875 63.9359 51.875 64.4687V66.4062C51.875 66.9391 51.4391 67.375 50.9063 67.375H32.5V82.875C32.5 89.293 37.707 94.5 44.125 94.5C50.543 94.5 55.75 89.293 55.75 82.875H71.25C71.25 89.293 76.457 94.5 82.875 94.5C89.293 94.5 94.5 89.293 94.5 82.875H100.313C101.378 82.875 102.25 82.0031 102.25 80.9375V77.0625C102.25 75.9969 101.378 75.125 100.313 75.125ZM44.125 88.6875C40.916 88.6875 38.3125 86.084 38.3125 82.875C38.3125 79.666 40.916 77.0625 44.125 77.0625C47.334 77.0625 49.9375 79.666 49.9375 82.875C49.9375 86.084 47.334 88.6875 44.125 88.6875ZM82.875 88.6875C79.666 88.6875 77.0625 86.084 77.0625 82.875C77.0625 79.666 79.666 77.0625 82.875 77.0625C86.084 77.0625 88.6875 79.666 88.6875 82.875C88.6875 86.084 86.084 88.6875 82.875 88.6875ZM92.5625 63.5H75.125V49.9375H80.4652L92.5625 62.0348V63.5Z" fill="#2F80ED"/>
</svg>
