<svg width="126" height="126" viewBox="0 0 126 126" fill="none" xmlns="http://www.w3.org/2000/svg">
<circle cx="63" cy="63" r="63" fill="#EAF3FF"/>
<path d="M100.593 46.8973L92.5145 34.0018C91.7925 32.8442 90.5104 32.1347 89.1412 32.1347H38.8538C37.4846 32.1347 36.2025 32.8442 35.4806 34.0018L27.4023 46.8973C23.2324 53.5566 26.9293 62.8175 34.7213 63.8755C35.2814 63.9502 35.854 63.9875 36.4266 63.9875C40.111 63.9875 43.3722 62.3694 45.6128 59.8675C47.8533 62.3694 51.1269 63.9875 54.7989 63.9875C58.4833 63.9875 61.7446 62.3694 63.9851 59.8675C66.2256 62.3694 69.4993 63.9875 73.1712 63.9875C76.8557 63.9875 80.1169 62.3694 82.3574 59.8675C84.6104 62.3694 87.8716 63.9875 91.5436 63.9875C92.1286 63.9875 92.6887 63.9502 93.2489 63.8755C101.066 62.8299 104.775 53.5691 100.593 46.8973V46.8973ZM91.5685 67.9831C90.3237 67.9831 89.0914 67.7964 87.8965 67.5101V79.9326H40.0986V67.5101C38.9036 67.784 37.6713 67.9831 36.4266 67.9831C35.6798 67.9831 34.9205 67.9333 34.1861 67.8338C33.489 67.7342 32.8044 67.5724 32.1447 67.3857V91.8821C32.1447 94.0853 33.9247 95.8653 36.1279 95.8653H91.8921C94.0953 95.8653 95.8752 94.0853 95.8752 91.8821V67.3857C95.2031 67.5848 94.5309 67.7466 93.8339 67.8338C93.0746 67.9333 92.3278 67.9831 91.5685 67.9831Z" fill="#2F80ED"/>
</svg>
