<svg width="126" height="126" viewBox="0 0 126 126" fill="none" xmlns="http://www.w3.org/2000/svg">
<circle cx="63" cy="63" r="63" fill="#EAF3FF"/>
<path d="M87.7188 73.1875H73.1875C70.5234 73.1875 68.3438 71.0078 68.3438 68.3438C68.3438 65.6797 70.5234 63.5 73.1875 63.5H87.7188C87.7188 63.5 102.25 47.3037 102.25 39.2813C102.25 31.2588 95.7412 24.75 87.7188 24.75C79.6963 24.75 73.1875 31.2588 73.1875 39.2813C73.1875 43.1411 76.5479 48.8779 80.0444 53.8125H73.1875C65.1802 53.8125 58.6563 60.3364 58.6563 68.3438C58.6563 76.3511 65.1802 82.875 73.1875 82.875H87.7188C90.3828 82.875 92.5625 85.0547 92.5625 87.7188C92.5625 90.3828 90.3828 92.5625 87.7188 92.5625H52.8286C50.4067 96.3164 47.7124 99.7827 45.6689 102.25H87.7188C95.7261 102.25 102.25 95.7261 102.25 87.7188C102.25 79.7114 95.7261 73.1875 87.7188 73.1875ZM87.7188 34.4375C90.398 34.4375 92.5625 36.6021 92.5625 39.2813C92.5625 41.9605 90.398 44.125 87.7188 44.125C85.0396 44.125 82.875 41.9605 82.875 39.2813C82.875 36.6021 85.0396 34.4375 87.7188 34.4375ZM39.2813 63.5C31.2588 63.5 24.75 70.0088 24.75 78.0313C24.75 86.0537 39.2813 102.25 39.2813 102.25C39.2813 102.25 53.8125 86.0537 53.8125 78.0313C53.8125 70.0088 47.3037 63.5 39.2813 63.5ZM39.2813 82.875C36.6021 82.875 34.4375 80.7105 34.4375 78.0313C34.4375 75.3521 36.6021 73.1875 39.2813 73.1875C41.9605 73.1875 44.125 75.3521 44.125 78.0313C44.125 80.7105 41.9605 82.875 39.2813 82.875Z" fill="#2F80ED"/>
</svg>
