<svg width="512" height="720" viewBox="0 0 512 720" fill="none" xmlns="http://www.w3.org/2000/svg">
<rect width="512" height="720" fill="#0070C0"/>
<path d="M266.625 359.115V362.214C266.625 362.944 266.027 363.542 265.297 363.542H246.703C245.973 363.542 245.375 362.944 245.375 362.214V359.115C245.375 358.384 245.973 357.786 246.703 357.786H265.297C266.027 357.786 266.625 358.384 266.625 359.115ZM265.297 367.083H246.703C245.973 367.083 245.375 367.681 245.375 368.411V371.51C245.375 372.241 245.973 372.839 246.703 372.839H265.297C266.027 372.839 266.625 372.241 266.625 371.51V368.411C266.625 367.681 266.027 367.083 265.297 367.083ZM277.25 346.265V383.021C277.25 385.954 274.87 388.333 271.938 388.333H240.063C237.13 388.333 234.75 385.954 234.75 383.021V336.979C234.75 334.046 237.13 331.667 240.063 331.667H262.652C264.057 331.667 265.408 332.231 266.404 333.227L275.689 342.513C276.686 343.498 277.25 344.859 277.25 346.265ZM263.083 337.411V345.833H271.506L263.083 337.411V337.411ZM271.938 383.021V351.146H260.427C258.955 351.146 257.771 349.962 257.771 348.49V336.979H240.063V383.021H271.938Z" fill="white"/>
</svg>
