<svg width="512" height="720" viewBox="0 0 512 720" fill="none" xmlns="http://www.w3.org/2000/svg">
<rect x="0.5" y="0.5" width="511" height="719" rx="9.5" fill="white"/>
<path d="M276.906 357.716V363.96C276.906 365.431 275.702 366.635 274.23 366.635H236.77C235.298 366.635 234.094 365.431 234.094 363.96V357.716C234.094 356.245 235.298 355.04 236.77 355.04H274.23C275.702 355.04 276.906 356.245 276.906 357.716ZM274.23 373.771H236.77C235.298 373.771 234.094 374.975 234.094 376.447V382.69C234.094 384.162 235.298 385.366 236.77 385.366H274.23C275.702 385.366 276.906 384.162 276.906 382.69V376.447C276.906 374.975 275.702 373.771 274.23 373.771ZM298.312 331.828V405.88C298.312 411.789 293.518 416.583 287.609 416.583H223.391C217.482 416.583 212.688 411.789 212.688 405.88V313.12C212.688 307.211 217.482 302.417 223.391 302.417H268.901C271.733 302.417 274.453 303.554 276.46 305.561L295.168 324.269C297.175 326.253 298.312 328.996 298.312 331.828ZM269.771 313.99V330.958H286.74L269.771 313.99V313.99ZM287.609 405.88V341.662H264.419C261.454 341.662 259.068 339.276 259.068 336.31V313.12H223.391V405.88H287.609Z" fill="#D8E0E9" fill-opacity="0.5"/>
<rect x="0.5" y="0.5" width="511" height="719" rx="9.5" stroke="#D8E0E9" stroke-dasharray="5 5"/>
</svg>
