<svg width="512" height="512" viewBox="0 0 512 512" fill="none" xmlns="http://www.w3.org/2000/svg">
<g clip-path="url(#clip0)">
<rect width="512" height="512" rx="50" fill="#006DFF"/>
<path d="M246.237 384.555C174.345 280.333 161 269.637 161 231.333C161 178.866 203.533 136.333 256 136.333C308.467 136.333 351 178.866 351 231.333C351 269.637 337.655 280.333 265.763 384.555C261.045 391.371 250.954 391.37 246.237 384.555Z" fill="white"/>
<path d="M260.689 167.621C295.216 217.676 301.625 222.813 301.625 241.208C301.625 266.406 281.198 286.833 256 286.833C230.802 286.833 210.375 266.406 210.375 241.208C210.375 222.813 216.784 217.676 251.311 167.621C253.577 164.348 258.423 164.349 260.689 167.621Z" fill="#2F80ED"/>
<g clip-path="url(#clip1)">
<path d="M450.045 180.774L361.53 180.774C357.261 180.774 353.8 177.313 353.8 173.045L353.8 162.721C353.8 158.459 357.25 155.001 361.512 154.991L431.826 154.826L431.991 84.5116C432.001 80.2499 435.459 76.8005 439.721 76.8005L450.044 76.8005C454.313 76.8005 457.774 80.2611 457.774 84.5299L457.774 173.045C457.774 177.313 454.313 180.774 450.045 180.774Z" fill="white"/>
</g>
<path fill-rule="evenodd" clip-rule="evenodd" d="M408.788 374C421.11 374 428.3 387.529 420.305 396.905C380.594 443.471 321.496 473 255.5 473C135.93 473 39 376.07 39 256.5C39 136.93 135.93 40 255.5 40C333.845 40 402.471 81.6141 440.478 143.944C446.276 153.452 439.004 165 427.868 165C422.364 165 417.329 162 414.411 157.333C381.316 104.411 322.519 69.2103 255.5 69.2103C152.063 69.2103 68.2103 153.063 68.2103 256.5C68.2103 359.937 152.063 443.79 255.5 443.79C311.769 443.79 362.243 418.975 396.575 379.692C399.668 376.153 404.087 374 408.788 374Z" fill="white"/>
</g>
<defs>
<clipPath id="clip0">
<rect width="512" height="512" rx="50" fill="white"/>
</clipPath>
<clipPath id="clip1">
<rect width="168.765" height="168.765" fill="white" transform="translate(306 148.335) rotate(-45)"/>
</clipPath>
</defs>
</svg>
