<svg width="128" height="128" viewBox="0 0 128 128" fill="none" xmlns="http://www.w3.org/2000/svg">
<g clip-path="url(#clip0)">
<path fill-rule="evenodd" clip-rule="evenodd" d="M64.0002 0C99.3467 0 128 28.6537 128 64.0002C128 99.3467 99.3467 128 64.0002 128C28.6537 128 0 99.3467 0 64.0002C0 28.6537 28.6537 0 64.0002 0ZM48.3936 27.4027H79.6083C91.3303 27.4027 100.916 36.8698 100.916 48.4351V79.5656C100.916 91.1337 91.3303 100.598 79.6087 100.598L48.3936 100.597C36.6716 100.597 27.0847 91.1333 27.0847 79.5653V48.4347C27.0847 36.8698 36.6716 27.4027 48.3936 27.4027ZM63.8017 44.2384C75.1923 44.2384 84.4355 53.482 84.4355 64.8726C84.4355 76.2648 75.1923 85.5069 63.8017 85.5069C52.4076 85.5069 43.1659 76.2648 43.1659 64.8726C43.1659 53.482 52.408 44.2384 63.8017 44.2384ZM63.8017 51.208C71.3446 51.208 77.4667 57.3286 77.4667 64.8726C77.4667 72.4171 71.3446 78.5388 63.8017 78.5388C56.2561 78.5388 50.1351 72.4167 50.1351 64.8726C50.1351 57.3286 56.2561 51.208 63.8017 51.208ZM83.7643 41.3783C85.6148 41.3783 87.1151 42.8786 87.1151 44.7272C87.1151 46.5777 85.6148 48.078 83.7643 48.078C81.9153 48.078 80.4154 46.5777 80.4154 44.7272C80.4154 42.8783 81.9157 41.3783 83.7643 41.3783ZM50.9446 33.3815H77.06C86.8663 33.3815 94.8861 41.3618 94.8861 51.1139V77.3603C94.8861 87.112 86.8663 95.0912 77.06 95.0912L50.9446 95.0915C41.1383 95.0915 33.117 87.1128 33.117 77.3607V51.1135C33.117 41.3618 41.1383 33.3815 50.9446 33.3815Z" fill="url(#paint0_linear)"/>
</g>
<defs>
<linearGradient id="paint0_linear" x1="96.0696" y1="118.347" x2="31.9306" y2="9.65262" gradientUnits="userSpaceOnUse">
<stop stop-color="#F58529"/>
<stop offset="0.169" stop-color="#FEDA77"/>
<stop offset="0.478" stop-color="#DD2A7B"/>
<stop offset="0.78" stop-color="#8134AF"/>
<stop offset="1" stop-color="#515BD4"/>
</linearGradient>
<clipPath id="clip0">
<rect width="128" height="128" fill="white"/>
</clipPath>
</defs>
</svg>
