<svg width="170" height="50" viewBox="0 0 170 50" fill="none" xmlns="http://www.w3.org/2000/svg">
<g clip-path="url(#clip0_305:466)">
<path d="M163.516 49.9051H6.56375C3.1128 49.9051 0.285645 47.1189 0.285645 43.7155V6.58064C0.285645 3.17851 3.1128 0.392334 6.56375 0.392334H163.516C166.967 0.392334 169.793 3.17851 169.793 6.58064V43.7168C169.793 47.1201 166.967 49.9063 163.515 49.9063L163.516 49.9051Z" fill="black"/>
<path d="M163.516 1.38436C166.423 1.38436 168.788 3.71576 168.788 6.58189V43.7155C168.788 46.5816 166.423 48.913 163.515 48.913H6.56375C3.65769 48.913 1.29275 46.5816 1.29275 43.7155V6.58064C1.29275 3.71576 3.65769 1.38311 6.56375 1.38311H163.516V1.38436ZM163.516 0.392334H6.56375C3.1128 0.392334 0.285645 3.17851 0.285645 6.58064V43.7168C0.285645 47.1201 3.1128 49.9063 6.56375 49.9063H163.516C166.967 49.9063 169.793 47.1201 169.793 43.7168V6.58064C169.793 3.17851 166.967 0.392334 163.515 0.392334H163.516Z" fill="#A6A6A6"/>
<path d="M59.8235 13.0713C59.8235 14.1049 59.5096 14.9327 58.8912 15.5501C58.1803 16.2819 57.2542 16.6502 56.1195 16.6502C55.6055 16.6587 55.095 16.5645 54.6189 16.3734C54.1428 16.1822 53.7109 15.8979 53.3493 15.5377C52.5881 14.7888 52.2083 13.8697 52.2083 12.7696C52.2083 11.6695 52.5881 10.7504 53.3493 10.0077C53.7097 9.64555 54.1413 9.35957 54.6176 9.16724C55.0938 8.9749 55.6049 8.88025 56.1195 8.88905C56.6594 8.88905 57.1742 8.99891 57.6655 9.20315C58.1551 9.40894 58.5538 9.68745 58.8426 10.0309L58.1865 10.6839C57.6827 10.0975 56.9968 9.80814 56.1195 9.80814C55.3284 9.80814 54.6426 10.0805 54.0603 10.6297C53.4843 11.1806 53.1955 11.8939 53.1955 12.7696C53.1955 13.6454 53.4843 14.3649 54.0603 14.9157C54.6091 15.4478 55.3497 15.7433 56.1195 15.7373C56.9592 15.7373 57.6655 15.4588 58.2226 14.9095C58.5899 14.5459 58.7986 14.0446 58.8536 13.404H56.1195V12.5097H59.767C59.811 12.7031 59.8235 12.8903 59.8235 13.0713V13.0713ZM65.6103 9.9706H62.1841V12.3225H65.2729V13.2168H62.1841V15.5686H65.6103V16.48H61.2141V9.05925H65.6103V9.9706V9.9706ZM69.6942 16.48H68.7243V9.9706H66.6227V9.05925H71.7974V9.9706H69.6942V16.48V16.48ZM75.5422 16.48V9.05925H76.5106V16.48H75.5422ZM80.8032 16.48H79.8411V9.9706H77.7317V9.05925H82.9127V9.9706H80.8032V16.48ZM92.7096 15.5253C91.9672 16.2758 91.0475 16.6502 89.9504 16.6502C88.847 16.6502 87.9273 16.2758 87.1849 15.5253C86.4441 14.7764 86.0752 13.8574 86.0752 12.7696C86.0752 11.6819 86.4441 10.7628 87.1849 10.0139C87.9273 9.26349 88.847 8.88905 89.9504 8.88905C91.0412 8.88905 91.9609 9.26349 92.7033 10.0201C93.4504 10.7752 93.8192 11.6881 93.8192 12.7696C93.8192 13.8574 93.4504 14.7764 92.7096 15.5253V15.5253ZM87.9022 14.9033C88.4609 15.4588 89.1405 15.7373 89.9504 15.7373C90.754 15.7373 91.4398 15.4588 91.9923 14.9033C92.5495 14.3478 92.832 13.6346 92.832 12.7696C92.832 11.9047 92.5495 11.1914 91.9923 10.6359C91.7288 10.3655 91.4113 10.1518 91.0599 10.0083C90.7084 9.86478 90.3307 9.79452 89.9504 9.80194C89.1405 9.80194 88.4609 10.0805 87.9022 10.6359C87.345 11.1914 87.0625 11.9047 87.0625 12.7696C87.0625 13.6346 87.345 14.3478 87.9022 14.9033V14.9033ZM95.18 16.48V9.05925H96.3571L100.017 14.8306H100.06L100.017 13.404V9.05925H100.986V16.48H99.9749L96.1421 10.424H96.0997L96.1421 11.8567V16.48H95.18Z" fill="white" stroke="white" stroke-width="0.199309" stroke-miterlimit="10"/>
<path d="M85.8367 27.3183C82.8881 27.3183 80.4793 29.5297 80.4793 32.5833C80.4793 35.6119 82.8881 37.847 85.8367 37.847C88.7929 37.847 91.2017 35.6106 91.2017 32.5833C91.2017 29.531 88.7929 27.3183 85.8367 27.3183V27.3183ZM85.8367 35.7743C84.2196 35.7743 82.8267 34.4574 82.8267 32.5833C82.8267 30.6842 84.2196 29.3911 85.8367 29.3911C87.4551 29.3911 88.8543 30.6842 88.8543 32.5833C88.8543 34.4574 87.4551 35.7743 85.8367 35.7743ZM74.1461 27.3183C71.1899 27.3183 68.7874 29.5297 68.7874 32.5833C68.7874 35.6119 71.1899 37.847 74.1461 37.847C77.0997 37.847 79.5047 35.6106 79.5047 32.5833C79.5047 29.531 77.0997 27.3183 74.1461 27.3183V27.3183ZM74.1461 35.7743C72.5264 35.7743 71.1298 34.4574 71.1298 32.5833C71.1298 30.6842 72.5264 29.3911 74.1461 29.3911C75.7644 29.3911 77.1561 30.6842 77.1561 32.5833C77.1561 34.4574 75.7644 35.7743 74.1461 35.7743ZM60.2332 28.9313V31.169H65.6533C65.4942 32.4184 65.0709 33.3379 64.4207 33.9789C63.6303 34.7535 62.3978 35.6119 60.2332 35.6119C59.4503 35.616 58.6743 35.4651 57.9502 35.1678C57.2262 34.8705 56.5685 34.4328 56.0154 33.88C55.4623 33.3272 55.0247 32.6704 54.728 31.9477C54.4313 31.2249 54.2814 30.4506 54.2871 29.6697C54.2814 28.8887 54.4313 28.1144 54.728 27.3917C55.0247 26.6689 55.4623 26.0121 56.0154 25.4593C56.5685 24.9066 57.2262 24.4689 57.9502 24.1716C58.6743 23.8743 59.4503 23.7233 60.2332 23.7275C62.037 23.7275 63.3498 24.4234 64.3168 25.323L65.9164 23.7462C64.5635 22.4718 62.7598 21.4923 60.2332 21.4923C55.6612 21.4923 51.8157 25.1606 51.8157 29.6697C51.8157 34.1788 55.6612 37.847 60.2332 37.847C62.7059 37.847 64.5623 37.0487 66.0216 35.5506C67.5172 34.0763 67.9844 32.0023 67.9844 30.3281C67.9844 29.8084 67.9406 29.3311 67.8617 28.9313H60.2332V28.9313ZM117.122 30.6667C116.681 29.4885 115.321 27.3183 112.549 27.3183C109.802 27.3183 107.516 29.451 107.516 32.5833C107.516 35.5319 109.778 37.847 112.812 37.847C113.689 37.8554 114.555 37.6466 115.332 37.2393C116.109 36.832 116.773 36.2389 117.264 35.5132L115.444 34.3175C114.836 35.1933 114.008 35.7743 112.813 35.7743C111.624 35.7743 110.771 35.237 110.226 34.1788L117.369 31.2652L117.122 30.6655V30.6667ZM109.839 32.4196C109.778 30.3893 111.439 29.3498 112.629 29.3498C113.561 29.3498 114.353 29.8084 114.616 30.4668L109.839 32.4196V32.4196ZM104.035 37.5272H106.382V22.0545H104.035V37.5272V37.5272ZM100.189 28.4902H100.11C99.5829 27.8743 98.5771 27.3183 97.3019 27.3183C94.6276 27.3183 92.1825 29.6322 92.1825 32.6008C92.1825 35.5506 94.6276 37.847 97.3019 37.847C98.5771 37.847 99.5829 37.2848 100.11 36.6514H100.189V37.406C100.189 39.4188 99.0982 40.5008 97.3382 40.5008C95.904 40.5008 95.0146 39.48 94.6464 38.6204L92.6046 39.4613C93.1933 40.8569 94.7516 42.5736 97.3395 42.5736C100.091 42.5736 102.414 40.9768 102.414 37.0924V27.6369H100.189V28.489V28.4902ZM97.5036 35.7743C95.8852 35.7743 94.5311 34.4374 94.5311 32.6008C94.5311 30.7454 95.8852 29.3911 97.5036 29.3911C99.0981 29.3911 100.356 30.7454 100.356 32.6008C100.356 34.4374 99.0981 35.7743 97.5036 35.7743ZM128.115 22.0545H122.5V37.5272H124.842V31.6637H128.115C130.715 31.6637 133.266 29.8084 133.266 26.8585C133.266 23.9099 130.71 22.0545 128.115 22.0545V22.0545ZM128.176 29.5123H124.841V24.206H128.176C128.893 24.1953 129.585 24.4686 130.1 24.9658C130.615 25.4631 130.911 26.1437 130.923 26.8585C130.923 28.0554 129.925 29.5123 128.176 29.5123ZM142.652 27.2883C140.961 27.2883 139.201 28.0255 138.477 29.6572L140.556 30.5155C141.002 29.6572 141.825 29.3786 142.694 29.3786C143.909 29.3786 145.142 30.0982 145.161 31.3689V31.5313C144.736 31.2902 143.829 30.9316 142.713 30.9316C140.475 30.9316 138.195 32.1473 138.195 34.4137C138.195 36.4877 140.027 37.8221 142.089 37.8221C143.665 37.8221 144.534 37.1224 145.08 36.3065H145.161V37.5022H147.422V31.5675C147.422 28.8238 145.343 27.2883 142.652 27.2883V27.2883ZM142.37 35.768C141.603 35.768 140.536 35.3932 140.536 34.4562C140.536 33.2592 141.867 32.7994 143.02 32.7994C144.051 32.7994 144.534 33.0243 145.161 33.3192C145.069 33.9943 144.737 34.6139 144.224 35.0639C143.711 35.5138 143.053 35.7639 142.37 35.768V35.768ZM155.661 27.6269L152.971 34.335H152.89L150.107 27.6269H147.582L151.763 37.0012L149.377 42.2162H151.824L158.267 27.6269H155.661ZM134.553 37.5272H136.901V22.0545H134.553V37.5272V37.5272Z" fill="white"/>
<path d="M13.3878 9.72342C13.019 10.104 12.8055 10.6967 12.8055 11.4641V38.8385C12.8055 39.606 13.019 40.1986 13.3878 40.5792L13.4789 40.6628L29.039 25.3293V24.9672L13.4789 9.63368L13.3878 9.72342Z" fill="url(#paint0_linear_305:466)"/>
<path d="M34.22 30.4431L29.0391 25.3293V24.9672L34.2263 19.8535L34.3425 19.92L40.4855 23.3658C42.2387 24.3437 42.2387 25.9529 40.4855 26.9369L34.3425 30.3765L34.22 30.4431V30.4431Z" fill="url(#paint1_linear_305:466)"/>
<path d="M34.3424 30.3765L29.039 25.1483L13.3878 40.5792C13.9701 41.1827 14.9197 41.2554 15.9995 40.652L34.3424 30.3765" fill="url(#paint2_linear_305:466)"/>
<path d="M34.3424 19.92L15.9995 9.64453C14.9197 9.04728 13.9701 9.12 13.3878 9.72344L29.039 25.1483L34.3424 19.92Z" fill="url(#paint3_linear_305:466)"/>
</g>
<defs>
<linearGradient id="paint0_linear_305:466" x1="27.6579" y1="39.1232" x2="6.88559" y2="18.0537" gradientUnits="userSpaceOnUse">
<stop stop-color="#00A0FF"/>
<stop offset="0.007" stop-color="#00A1FF"/>
<stop offset="0.26" stop-color="#00BEFF"/>
<stop offset="0.512" stop-color="#00D2FF"/>
<stop offset="0.76" stop-color="#00DFFF"/>
<stop offset="1" stop-color="#00E3FF"/>
</linearGradient>
<linearGradient id="paint1_linear_305:466" x1="42.7679" y1="25.147" x2="12.3871" y2="25.147" gradientUnits="userSpaceOnUse">
<stop stop-color="#FFE000"/>
<stop offset="0.409" stop-color="#FFBD00"/>
<stop offset="0.775" stop-color="#FFA500"/>
<stop offset="1" stop-color="#FF9C00"/>
</linearGradient>
<linearGradient id="paint2_linear_305:466" x1="31.4586" y1="22.3062" x2="3.29111" y2="-6.2661" gradientUnits="userSpaceOnUse">
<stop stop-color="#FF3A44"/>
<stop offset="1" stop-color="#C31162"/>
</linearGradient>
<linearGradient id="paint3_linear_305:466" x1="9.44771" y1="49.6868" x2="22.0264" y2="36.9274" gradientUnits="userSpaceOnUse">
<stop stop-color="#32A071"/>
<stop offset="0.069" stop-color="#2DA771"/>
<stop offset="0.476" stop-color="#15CF74"/>
<stop offset="0.801" stop-color="#06E775"/>
<stop offset="1" stop-color="#00F076"/>
</linearGradient>
<clipPath id="clip0_305:466">
<rect width="170" height="50" fill="white"/>
</clipPath>
</defs>
</svg>
