<svg width="161" height="50" viewBox="0 0 161 50" fill="none" xmlns="http://www.w3.org/2000/svg">
<path d="M147.763 0L11.3232 0.00285714L10.0898 0.0171429C9.18994 0.0285714 8.2915 0.1 7.40312 0.238571C6.51475 0.377143 5.65512 0.642857 4.85156 1.02286C4.05616 1.40079 3.32366 1.8975 2.6795 2.49571C2.04462 3.08059 1.51046 3.76489 1.09825 4.52143C0.692621 5.26461 0.409667 6.06768 0.260187 6.9C0.111015 7.7263 0.0307218 8.56343 0.020125 9.40286L0 10.5571V39.45L0.020125 40.6029C0.0301875 41.4414 0.110687 42.2786 0.260187 43.1057C0.409687 43.9329 0.691437 44.7371 1.09825 45.4857C1.50506 46.2343 2.03837 46.9143 2.6795 47.5043C3.312 48.1 4.048 48.5986 4.85012 48.9757C5.65225 49.3529 6.51331 49.6214 7.40025 49.7643C8.28719 49.9071 9.1885 49.9743 10.0884 49.9857L11.3217 50H12.7937L150.457 49.9857C151.356 49.9752 152.253 49.9012 153.141 49.7643C154.028 49.6222 154.889 49.3568 155.701 48.9757C156.497 48.6005 157.229 48.1035 157.871 47.5029C158.504 46.9185 159.039 46.237 159.456 45.4843C159.859 44.7402 160.14 43.9367 160.287 43.1043C160.436 42.2779 160.52 41.4409 160.536 40.6014L160.541 39.4486L160.551 38.0814L160.537 9.40429C160.521 8.56477 160.438 7.72786 160.288 6.90143C160.141 6.06959 159.86 5.26657 159.458 4.52286C158.63 3.01857 157.301 1.79429 155.703 1.02286C154.898 0.644286 154.032 0.38 153.144 0.237143C152.256 0.0942857 151.369 0.0285714 150.456 0.0185714L149.22 0.00428571L147.763 0Z" fill="#A6A6A6"/>
<path d="M11.3304 48.9057C10.926 48.9057 10.5216 48.9014 10.1172 48.8929C9.27729 48.8826 8.43913 48.8144 7.60876 48.6886C6.83921 48.5658 6.091 48.3354 5.38638 48.0043C4.69505 47.6804 4.06182 47.2461 3.51188 46.7186C2.96187 46.2157 2.49945 45.6259 2.14338 44.9729C1.7899 44.3259 1.54379 43.6264 1.41457 42.9014C1.27678 42.1273 1.20227 41.3433 1.19176 40.5572L1.17163 39.4143V10.5572L1.19176 9.43859C1.20182 8.65287 1.27801 7.87144 1.41313 7.09859C1.54249 6.37186 1.78857 5.67054 2.14194 5.02144C2.49126 4.3743 2.95126 3.7843 3.50326 3.2743C4.05526 2.7643 4.68919 2.32859 5.38638 1.99573C6.08937 1.66493 6.83625 1.43548 7.60444 1.3143C8.4371 1.18726 9.27771 1.11852 10.1201 1.10859L11.3304 1.0943L150.437 1.10859C151.272 1.11763 152.106 1.18542 152.931 1.31144C153.708 1.43356 154.463 1.66443 155.174 1.99716C156.545 2.64455 157.678 3.70204 158.414 5.02144C158.763 5.67144 159.006 6.3643 159.133 7.08287C159.272 7.86187 159.35 8.65044 159.366 9.44144L159.37 10.5557L159.38 11.92L159.366 40.5872C159.351 41.3643 159.274 42.1386 159.136 42.9043C159.011 43.63 158.766 44.3329 158.411 44.99C158.053 45.636 157.593 46.2207 157.048 46.7214C156.494 47.2431 155.861 47.6746 155.171 48C154.462 48.3339 153.708 48.5653 152.933 48.6872C152.103 48.8129 151.265 48.8814 150.424 48.8914L149.22 48.9057L147.765 48.9086L11.3319 48.9057H11.3304Z" fill="black"/>
<path d="M33.2322 25.3757C33.2609 23.2557 34.454 21.2971 36.3947 20.1857C35.1656 18.55 33.1819 17.5514 31.04 17.4886C28.7874 17.2686 26.6024 18.7457 25.4553 18.7457C24.2852 18.7457 22.517 17.5114 20.6138 17.5486C18.1097 17.6243 15.8312 18.92 14.6122 20.9586C12.0175 25.1443 13.951 31.2957 16.4379 34.6786C17.6813 36.3357 19.1346 38.1857 21.0379 38.1071C22.8994 38.0357 23.5937 37.0014 25.8391 37.0014C28.0644 37.0014 28.717 38.1071 30.6576 38.0657C32.6701 38.0371 33.9121 36.4014 35.1139 34.73C36.0013 33.561 36.6894 32.255 37.1508 30.8643C34.7789 29.93 33.2365 27.7643 33.2336 25.3643L33.2322 25.3757ZM29.5665 15.2643C30.1004 14.6758 30.5082 13.9856 30.7652 13.2355C31.0222 12.4855 31.123 11.6914 31.0615 10.9014C29.4216 11.0526 27.8925 11.7896 26.7577 12.9757C26.224 13.5329 25.8122 14.1938 25.5483 14.9169C25.2843 15.64 25.1738 16.4095 25.2239 17.1771C26.91 17.1943 28.51 16.4886 29.5651 15.2629L29.5665 15.2643ZM56.7554 33.9243H50.4045L48.8808 38.12H46.1927L52.2086 22.5971H55.0031L61.0191 38.12H58.2835L56.7597 33.9243H56.7554ZM51.0629 31.9886H56.097L53.6159 25.1786H53.5469L51.0644 31.9886H51.0629Z" fill="white"/>
<path d="M74.0055 32.4629C74.0055 35.98 71.9858 38.2386 68.9368 38.2386C67.3613 38.3157 65.875 37.5457 65.1131 36.2586H65.0556V41.8643H62.5615V26.8029H64.9765V28.6843H65.0225C65.8175 27.4043 67.3038 26.6357 68.8894 26.6843C71.9728 26.6843 74.004 28.9557 74.004 32.4614L74.0055 32.4629ZM71.4424 32.4629C71.4424 30.1714 70.1717 28.6629 68.2325 28.6629C66.3278 28.6629 65.0455 30.2014 65.0455 32.4629C65.0455 34.7429 66.3249 36.27 68.2325 36.27C70.1731 36.27 71.4424 34.7743 71.4424 32.4629Z" fill="white"/>
<path d="M87.3756 32.4629C87.3756 35.98 85.3559 38.2386 82.307 38.2386C80.7315 38.3157 79.2451 37.5457 78.4832 36.2586H78.4257V41.8643H75.9316V26.8029H78.3466V28.6843H78.3926C79.1876 27.4043 80.674 26.6357 82.2595 26.6843C85.343 26.6843 87.3741 28.9557 87.3741 32.4614L87.3756 32.4629ZM84.8125 32.4629C84.8125 30.1714 83.5418 28.6629 81.6026 28.6629C79.6979 28.6629 78.4156 30.2014 78.4156 32.4629C78.4156 34.7429 79.695 36.27 81.6026 36.27C83.5432 36.27 84.8125 34.7743 84.8125 32.4629Z" fill="white"/>
<path d="M96.2118 33.7957C96.3987 35.3357 98.0015 36.3457 100.194 36.3457C102.295 36.3457 103.808 35.3343 103.808 33.9457C103.808 32.74 102.896 32.0171 100.737 31.5243L98.578 31.0386C95.519 30.35 94.0987 29.0171 94.0987 26.8528C94.0987 24.1743 96.6043 22.3343 100.161 22.3343C103.683 22.3343 106.095 24.1743 106.177 26.8528H103.644C103.493 25.3043 102.12 24.3671 100.11 24.3671C98.1007 24.3671 96.7279 25.3143 96.7279 26.69C96.7279 27.7871 97.5904 28.4328 99.7538 28.9271L101.59 29.3471C105.008 30.1 106.428 31.38 106.428 33.65C106.428 36.5543 103.946 38.3728 99.9968 38.3728C96.3024 38.3728 93.8069 36.5971 93.6459 33.79H96.1989L96.2118 33.7957ZM111.823 24.1243V26.8028H114.133V28.6428H111.837V34.8814C111.837 35.8528 112.3 36.3028 113.315 36.3028C113.59 36.2984 113.864 36.2803 114.136 36.2486V38.0771C113.679 38.1564 113.216 38.1922 112.752 38.1843C110.308 38.1843 109.333 37.3228 109.333 35.1271V28.6414H107.565V26.7843H109.333V24.1057H111.837L111.823 24.1243ZM115.47 32.4628C115.47 28.9014 117.721 26.6628 121.232 26.6628C124.753 26.6628 126.982 28.9 126.982 32.4628C126.982 36.0343 124.753 38.2628 121.232 38.2628C117.71 38.2628 115.47 36.0343 115.47 32.4628ZM124.454 32.4628C124.454 30.0343 123.253 28.5771 121.234 28.5771C119.216 28.5771 118.014 30.03 118.014 32.4628C118.014 34.9143 119.215 36.3457 121.234 36.3457C123.254 36.3457 124.454 34.9143 124.454 32.4628ZM129.049 26.8028H131.426V28.7143H131.484C131.814 27.4743 133.036 26.6214 134.406 26.6714C134.693 26.6712 134.979 26.6999 135.26 26.7571V28.9286C134.896 28.8256 134.518 28.7783 134.139 28.7886C133.42 28.76 132.697 29.0314 132.198 29.5314C131.699 30.0314 131.459 30.7114 131.541 31.3886V38.1028H129.047V26.7857L129.049 26.8028ZM146.759 34.7957C146.424 36.85 144.276 38.26 141.526 38.26C137.993 38.26 135.799 36.0543 135.799 32.5171C135.799 28.9671 138.004 26.6643 141.405 26.6643C144.766 26.6643 146.879 28.8157 146.879 32.2471V33.0428H138.316V33.1828C138.236 34.04 138.549 34.86 139.173 35.4728C139.492 35.7797 139.869 36.019 140.284 36.1764C140.698 36.3338 141.14 36.406 141.584 36.3886C142.794 36.4943 143.934 35.8457 144.387 34.7971H146.754L146.759 34.7957ZM138.331 31.4186H144.404C144.424 31.0397 144.362 30.6609 144.221 30.3082C144.08 29.9556 143.864 29.6375 143.588 29.3757C143.3 29.1025 142.961 28.8885 142.589 28.746C142.218 28.6036 141.822 28.5355 141.424 28.5457C140.614 28.537 139.831 28.8359 139.235 29.3814C138.952 29.6419 138.726 29.9569 138.571 30.3072C138.415 30.6575 138.333 31.0356 138.329 31.4186H138.331ZM50.7509 10.9143C51.2677 10.8767 51.7867 10.9484 52.2736 11.1247C52.7605 11.301 53.2043 11.5779 53.5756 11.9371C53.9316 12.2808 54.2022 12.7022 54.3656 13.1679C54.5291 13.6336 54.5809 14.1308 54.5171 14.62C54.5171 17.0028 53.1343 18.3728 50.7509 18.3728H47.8586V10.9143H50.7509V10.9143ZM49.1021 17.3171H50.6115C50.9806 17.34 51.3503 17.2845 51.6961 17.1542C52.0419 17.0238 52.3558 16.8218 52.6168 16.5614C53.1285 16.0414 53.3643 15.3328 53.2521 14.6328C53.3015 14.2859 53.2688 13.9323 53.1568 13.6C53.0448 13.2677 52.8564 12.966 52.6067 12.7186C52.3462 12.4605 52.0338 12.2601 51.69 12.1304C51.3462 12.0006 50.9786 11.9445 50.6115 11.9657H49.1021V17.3157V17.3171Z" fill="white"/>
<path d="M55.9217 15.5572C55.8182 14.5486 56.3386 13.5572 57.2614 13.0372C58.1843 12.5172 59.3559 12.5029 60.2802 13.0372C61.2045 13.5714 61.7235 14.5486 61.62 15.5572C61.7249 16.5672 61.2074 17.5457 60.2831 18.0814C59.3588 18.6172 58.1872 18.6172 57.2614 18.0814C56.3357 17.5457 55.8182 16.5672 55.9246 15.5572H55.9217ZM60.3923 15.5572C60.3923 14.3372 59.8029 13.6229 58.7723 13.6229C57.7416 13.6229 57.1522 14.3372 57.1522 15.5572C57.1522 16.7857 57.7358 17.4943 58.7723 17.4943C59.8087 17.4943 60.3923 16.78 60.3923 15.5572Z" fill="white"/>
<path d="M69.1941 18.3714H67.9578L66.7072 14.2257H66.6123L65.3689 18.3714H64.1441L62.4795 12.7429H63.687L64.7694 17.0371H64.8586L66.1006 12.7429H67.2448L68.4868 17.0371H68.5817L69.6598 12.7429H70.8529L69.1941 18.3714Z" fill="white"/>
<path d="M72.2546 12.7428H73.4017V13.6371H73.4908C73.8013 12.98 74.5258 12.5757 75.2935 12.6343C75.8886 12.5914 76.4722 12.8057 76.879 13.2128C77.0778 13.4078 77.2273 13.6468 77.3153 13.9103C77.4032 14.1737 77.4271 14.4542 77.385 14.7286V18.3714H76.1919V15.0071C76.1919 14.1028 75.7707 13.6528 74.8881 13.6528C74.6907 13.6431 74.4935 13.674 74.3087 13.7436C74.1239 13.8131 73.9556 13.9199 73.8143 14.0571C73.679 14.1885 73.5754 14.3487 73.5114 14.5256C73.4474 14.7026 73.4247 14.8916 73.4448 15.0786V18.3714H72.2517V12.7428H72.2546Z" fill="white"/>
<path d="M79.2854 10.5457H80.4785V18.3714H79.2854V10.5457ZM82.1345 15.5571C82.031 14.5486 82.5658 13.5571 83.4743 13.0371C83.9346 12.778 84.4546 12.6417 84.9837 12.6417C85.5127 12.6417 86.0327 12.778 86.493 13.0371C87.4173 13.5714 87.9363 14.5486 87.8328 15.5571C87.9377 16.5671 87.4188 17.5457 86.4959 18.0814C85.573 18.6171 84.4 18.6171 83.4743 18.0814C82.5485 17.5457 82.0296 16.5671 82.1374 15.5571H82.1345ZM86.5908 15.5571C86.5908 14.3371 86.0158 13.6229 84.9707 13.6229C83.9257 13.6229 83.3507 14.3371 83.3507 15.5571C83.3507 16.7857 83.9343 17.4943 84.9707 17.4943C86.0072 17.4943 86.5908 16.78 86.5908 15.5571ZM89.0891 16.78C89.0891 15.78 89.8985 15.1829 91.336 15.1L92.9718 15.0114V14.5257C92.9718 13.9314 92.5507 13.5971 91.7356 13.5971C91.07 13.5971 90.6086 13.8257 90.4763 14.2229H89.322C89.4442 13.2557 90.4203 12.6514 91.7902 12.6514C93.3053 12.6514 94.1592 13.3543 94.1592 14.5429V18.3886H93.0121V17.5971H92.9172C92.7161 17.8863 92.4437 18.1194 92.1261 18.2742C91.8085 18.429 91.4563 18.5004 91.1031 18.4814C90.8516 18.507 90.5975 18.4825 90.3556 18.4094C90.1137 18.3363 89.8889 18.2161 89.6943 18.0557C89.5075 17.9023 89.3565 17.7102 89.252 17.4928C89.1475 17.2754 89.0919 17.038 89.0891 16.7971V16.78ZM92.9733 16.3V15.8286L91.4984 15.9171C90.6647 15.97 90.2909 16.2314 90.2909 16.7286C90.2909 17.2343 90.7624 17.5286 91.4122 17.5286C91.796 17.5643 92.1798 17.4543 92.4759 17.2229C92.6196 17.1119 92.7385 16.9725 92.8248 16.8133C92.9112 16.6541 92.9632 16.4788 92.9776 16.2986L92.9733 16.3ZM95.7261 15.5571C95.7261 13.7786 96.7079 12.6514 98.2345 12.6514C98.6048 12.6314 98.9735 12.7128 99.3004 12.8866C99.6274 13.0604 99.9001 13.32 100.089 13.6371H100.178V10.5457H101.371V18.3714H100.228V17.4814H100.133C99.7453 18.11 99.0151 18.4914 98.236 18.4643C96.6978 18.4643 95.7275 17.3214 95.7275 15.5543L95.7261 15.5571ZM96.958 15.5571C96.958 16.7514 97.5618 17.4714 98.5723 17.4714C99.5829 17.4714 100.197 16.7571 100.197 15.5643C100.197 14.3714 99.5685 13.6529 98.5723 13.6529C97.5761 13.6529 96.958 14.3757 96.958 15.56V15.5571Z" fill="white"/>
<path d="M106.3 15.5572C106.197 14.5486 106.717 13.5572 107.64 13.0372C108.563 12.5172 109.735 12.5029 110.659 13.0372C111.583 13.5714 112.102 14.5486 111.999 15.5572C112.104 16.5672 111.586 17.5457 110.662 18.0814C109.737 18.6172 108.566 18.6172 107.64 18.0814C106.714 17.5457 106.197 16.5672 106.303 15.5572H106.3ZM110.771 15.5572C110.771 14.3372 110.182 13.6229 109.151 13.6229C108.12 13.6229 107.531 14.3372 107.531 15.5572C107.531 16.7857 108.114 17.4943 109.151 17.4943C110.187 17.4943 110.771 16.78 110.771 15.5572Z" fill="white"/>
<path d="M113.599 12.7428H114.746V13.6371H114.835C115.145 12.98 115.87 12.5757 116.637 12.6343C117.233 12.5914 117.816 12.8057 118.223 13.2128C118.422 13.4078 118.571 13.6468 118.659 13.9103C118.747 14.1737 118.771 14.4542 118.729 14.7286V18.3714H117.536V15.0071C117.536 14.1028 117.115 13.6528 116.232 13.6528C116.035 13.6431 115.837 13.674 115.653 13.7436C115.468 13.8131 115.3 13.9199 115.158 14.0571C115.023 14.1885 114.919 14.3487 114.855 14.5256C114.791 14.7026 114.769 14.8916 114.789 15.0786V18.3714H113.596V12.7428H113.599Z" fill="white"/>
<path d="M125.465 11.3429V12.7714H126.759V13.7071H125.465V16.6014C125.465 17.1914 125.724 17.4486 126.319 17.4486C126.471 17.4486 126.622 17.44 126.773 17.4229V18.3486C126.558 18.3843 126.342 18.4029 126.126 18.4057C124.801 18.4057 124.258 17.9714 124.258 16.8857V13.7043H123.299V12.7686H124.258V11.34H125.451L125.465 11.3429ZM128.405 10.5457H129.586V13.6457H129.681C130.006 12.9814 130.742 12.5786 131.521 12.6371C131.81 12.6208 132.1 12.6653 132.37 12.7677C132.641 12.8701 132.886 13.0281 133.091 13.2314C133.285 13.4281 133.431 13.6656 133.519 13.9263C133.608 14.187 133.636 14.4642 133.601 14.7371V18.37H132.408V15.01C132.408 14.11 131.958 13.6557 131.115 13.6557C130.912 13.6392 130.708 13.6649 130.515 13.7311C130.323 13.7972 130.147 13.9024 129.998 14.04C129.855 14.1718 129.744 14.3342 129.674 14.515C129.604 14.6957 129.577 14.8899 129.594 15.0829V18.3686H128.401V10.5457H128.405ZM140.555 16.8529C140.22 17.9143 139.117 18.6 137.938 18.4814C137.133 18.5014 136.357 18.19 135.821 17.63C135.285 17.07 135.037 16.32 135.145 15.5757C135.093 15.2037 135.127 14.8248 135.243 14.4675C135.36 14.1103 135.556 13.7839 135.818 13.5129C136.091 13.2303 136.419 13.0065 136.783 12.8554C137.146 12.7043 137.537 12.629 137.931 12.6343C139.613 12.6343 140.626 13.7057 140.626 15.4714V15.8571H136.361V15.9186C136.343 16.1272 136.372 16.3372 136.445 16.5337C136.517 16.7302 136.633 16.9084 136.783 17.0557C136.939 17.2095 137.124 17.3308 137.328 17.4124C137.532 17.4941 137.75 17.5346 137.97 17.5314C138.25 17.5656 138.534 17.5195 138.789 17.3985C139.044 17.2776 139.258 17.0867 139.407 16.8486H140.555V16.8529ZM136.36 15.0386H139.412C139.425 14.8477 139.397 14.6561 139.328 14.4773C139.26 14.2984 139.153 14.1365 139.015 14.0029C138.871 13.8635 138.701 13.7543 138.513 13.6819C138.326 13.6095 138.126 13.5753 137.925 13.5814C137.494 13.5771 137.106 13.7286 136.813 14.0029C136.52 14.2771 136.356 14.6514 136.36 15.04V15.0386Z" fill="white"/>
</svg>
