<svg width="512" height="512" viewBox="0 0 512 512" fill="none" xmlns="http://www.w3.org/2000/svg">
<path d="M172 142H338V452H172V142Z" fill="#C91300"/>
<rect x="212" y="199" width="81" height="117" rx="10" fill="#F6DDF6"/>
<rect x="212" y="331" width="81" height="17" rx="8.5" fill="#F6DDF6"/>
<path d="M172 452H338V490C338 495.523 333.523 500 328 500H182C176.477 500 172 495.523 172 490V452Z" fill="#9C2416"/>
<path d="M338 142L172 142C172 115.49 193.49 94 220 94L290 94C316.51 94 338 115.49 338 142Z" fill="#9C2416"/>
<path d="M280 94L229 94L229 46L280 46L280 94Z" fill="#9C2416"/>
<rect x="165" y="59" width="64" height="19" rx="9.5" transform="rotate(-30 165 59)" fill="#56595E"/>
<rect x="157" y="27" width="201" height="19" rx="9.5" fill="#7F8C8D"/>
<rect x="355.794" y="28" width="191" height="19" rx="9.5" transform="rotate(69.4804 355.794 28)" fill="#7F8C8D"/>
<circle cx="254.5" cy="47.5" r="35.5" fill="#BDC3C7"/>
<path d="M386.141 186.4C385.269 181.669 387.889 176.987 392.378 175.256L407.266 169.516C411.605 167.843 416.524 169.381 419.137 173.228L441.63 206.354C445.247 211.68 442.962 218.986 436.955 221.302L406.767 232.942C400.924 235.195 394.471 231.583 393.335 225.424L386.141 186.4Z" fill="#56595E"/>
<path d="M235.789 290.021C232.206 285.949 228.622 281.714 226.341 276.664C224.061 271.289 223.409 265.099 224.55 259.235C225.69 253.371 228.296 247.832 232.043 243.108C231.717 247.181 233.183 251.416 235.952 254.511C234.323 246.692 236.93 238.221 242.142 232.032C247.355 225.842 254.522 221.769 262.015 219C258.268 222.909 257.78 229.099 259.246 234.312C260.712 239.525 263.807 244.086 266.576 248.809C269.345 253.533 271.951 258.42 272.114 263.796C273.58 261.026 275.209 258.257 276.187 255.162C277.164 252.067 277.653 248.809 276.838 245.714C279.771 249.298 281.4 252.882 282.214 257.443C283.028 262.004 282.866 266.728 282.377 271.289C281.725 276.338 280.422 281.551 277.653 285.786C274.395 290.836 269.183 294.419 263.481 296.374C253.382 298.166 243.445 296.7 235.789 290.021Z" fill="#F3705A"/>
<path d="M248.169 296.048C261.527 301.261 274.721 285.46 267.391 273.243C267.391 273.081 267.228 273.08 267.228 272.918C267.879 279.596 266.25 284.483 263.155 287.252C264.784 283.343 263.644 278.782 261.689 274.872C259.735 271.126 256.966 267.705 254.848 264.121C252.73 260.375 251.101 256.14 252.079 251.904C248.169 254.837 245.4 259.235 244.26 263.959C243.12 268.682 243.771 273.895 245.889 278.293C243.445 276.501 241.654 273.569 241.491 270.474C238.884 273.569 237.256 277.642 237.418 281.714C237.419 288.067 242.468 293.768 248.169 296.048Z" fill="#FFD15C"/>
</svg>
