<svg width="512" height="512" viewBox="0 0 512 512" fill="none" xmlns="http://www.w3.org/2000/svg">
<path d="M100 421H412C412 454.689 384.689 482 351 482H161C127.311 482 100 454.689 100 421Z" fill="#FF3EAD"/>
<path d="M412 148L100 148C100 114.311 127.311 87 161 87L351 87C384.689 87 412 114.311 412 148Z" fill="#FF3EAD"/>
<path d="M349 501L162 501C162 490.507 170.507 482 181 482L330 482C340.493 482 349 490.507 349 501Z" fill="#FF8DE4"/>
<path d="M100 188H412V381H100V188Z" fill="#FF3EAD"/>
<rect x="173" y="226" width="166" height="117" rx="10" fill="#F7DDF6"/>
<path d="M238.789 316.021C235.206 311.949 231.622 307.714 229.341 302.664C227.061 297.289 226.409 291.099 227.55 285.235C228.69 279.371 231.296 273.832 235.043 269.108C234.717 273.181 236.183 277.416 238.952 280.511C237.323 272.692 239.93 264.221 245.142 258.032C250.355 251.842 257.522 247.769 265.015 245C261.268 248.909 260.78 255.099 262.246 260.312C263.712 265.525 266.807 270.086 269.576 274.809C272.345 279.533 274.951 284.42 275.114 289.796C276.58 287.026 278.209 284.257 279.187 281.162C280.164 278.067 280.653 274.809 279.838 271.714C282.771 275.298 284.4 278.882 285.214 283.443C286.028 288.004 285.866 292.728 285.377 297.289C284.725 302.338 283.422 307.551 280.653 311.786C277.395 316.836 272.183 320.419 266.481 322.374C256.382 324.166 246.445 322.7 238.789 316.021Z" fill="#F3705A"/>
<path d="M251.169 322.048C264.527 327.261 277.721 311.46 270.391 299.243C270.391 299.081 270.228 299.08 270.228 298.918C270.879 305.596 269.25 310.483 266.155 313.252C267.784 309.343 266.644 304.782 264.689 300.872C262.735 297.126 259.966 293.705 257.848 290.121C255.73 286.375 254.101 282.14 255.079 277.904C251.169 280.837 248.4 285.235 247.26 289.959C246.12 294.682 246.771 299.895 248.889 304.293C246.445 302.501 244.654 299.569 244.491 296.474C241.884 299.569 240.256 303.642 240.418 307.714C240.419 314.067 245.468 319.768 251.169 322.048Z" fill="#FFD15C"/>
<path d="M92 381H419V421H92V381Z" fill="#FF8DE4"/>
<path d="M92 148H419V188H92V148Z" fill="#FF8DE4"/>
<path d="M160 42H193V87H160V42Z" fill="#FF8DE4"/>
<path d="M319 42H352V87H319V42Z" fill="#FF8DE4"/>
<path d="M239 71H272V87H239V71Z" fill="#FF8DE4"/>
<path d="M384 14L384 42L128 42L128 14L384 14Z" fill="#FF8DE4"/>
</svg>
