<svg width="512" height="512" viewBox="0 0 512 512" fill="none" xmlns="http://www.w3.org/2000/svg">
<path d="M96 437H418V451C418 478.614 395.614 501 368 501H146C118.386 501 96 478.614 96 451V437Z" fill="#7DBAF2"/>
<path d="M418 181L96 181C96 147.311 123.311 120 157 120L357 120C390.689 120 418 147.311 418 181Z" fill="#7DBAF2"/>
<path d="M356 120L155 120C155 106.193 166.193 95 180 95L331 95C344.807 95 356 106.193 356 120Z" fill="#7DBAF2"/>
<path d="M96 394C96 385.716 102.716 379 111 379H403C411.284 379 418 385.716 418 394V437H96V394Z" fill="#B2D8FB"/>
<path d="M96 181H418V224C418 232.284 411.284 239 403 239H111C102.716 239 96 232.284 96 224V181Z" fill="#B2D8FB"/>
<path d="M205 51H309V95H205V51Z" fill="#7DBAF2"/>
<path d="M205 14H309V51H205V14Z" fill="#2682BE"/>
<path d="M111 239H402V379H111V239Z" fill="#7DBAF2"/>
</svg>
