<svg width="512" height="512" viewBox="0 0 512 512" fill="none" xmlns="http://www.w3.org/2000/svg">
<path d="M172 145H334V455H172V145Z" fill="#78D0B1"/>
<rect x="156" y="432" width="193" height="23" rx="10" fill="#DFEAEF"/>
<rect x="156" y="147" width="193" height="23" rx="10" fill="#DFEAEF"/>
<rect x="200" y="222" width="105" height="136" rx="10" fill="#F1F1F4"/>
<path d="M172 455H334C334 481.51 312.51 503 286 503H220C193.49 503 172 481.51 172 455Z" fill="#42AE88"/>
<path d="M334 145L172 145C172 118.49 193.49 97 220 97L286 97C312.51 97 334 118.49 334 145Z" fill="#42AE88"/>
<rect x="156" y="85" width="64" height="19" rx="9.5" transform="rotate(-90 156 85)" fill="#365E7D"/>
<rect x="156" y="66" width="74" height="19" rx="9.5" fill="#365E7D"/>
<rect x="156" y="21" width="249" height="19" rx="9.5" fill="#365E7D"/>
<rect x="405" y="21" width="196" height="19" rx="9.5" transform="rotate(90 405 21)" fill="#365E7D"/>
<path d="M221 63C221 57.4772 225.477 53 231 53H274C279.523 53 284 57.4772 284 63V97H221V63Z" fill="#365E7D"/>
<rect x="363" y="192.729" width="63" height="96" rx="31.5" fill="#78D0B1"/>
<rect x="376" y="222" width="38" height="6" rx="3" fill="#F1F1F4"/>
<rect x="376" y="236" width="38" height="6" rx="3" fill="#F1F1F4"/>
<rect x="376" y="250" width="38" height="6" rx="3" fill="#F1F1F4"/>
<path d="M271.438 290.281C271.438 294.76 270.646 298.688 269.062 302.062C267.479 305.438 265.208 308.042 262.25 309.875C259.312 311.708 255.938 312.625 252.125 312.625C248.354 312.625 244.99 311.719 242.031 309.906C239.073 308.094 236.781 305.51 235.156 302.156C233.531 298.781 232.708 294.906 232.688 290.531V288.281C232.688 283.802 233.49 279.865 235.094 276.469C236.719 273.052 239 270.438 241.938 268.625C244.896 266.792 248.271 265.875 252.062 265.875C255.854 265.875 259.219 266.792 262.156 268.625C265.115 270.438 267.396 273.052 269 276.469C270.625 279.865 271.438 283.792 271.438 288.25V290.281ZM261.938 288.219C261.938 283.448 261.083 279.823 259.375 277.344C257.667 274.865 255.229 273.625 252.062 273.625C248.917 273.625 246.49 274.854 244.781 277.312C243.073 279.75 242.208 283.333 242.188 288.062V290.281C242.188 294.927 243.042 298.531 244.75 301.094C246.458 303.656 248.917 304.938 252.125 304.938C255.271 304.938 257.688 303.708 259.375 301.25C261.062 298.771 261.917 295.167 261.938 290.438V288.219Z" fill="#42AE88"/>
<path d="M280.855 320H269.16V317.68L274.68 311.797C275.438 310.969 275.996 310.246 276.355 309.629C276.723 309.012 276.906 308.426 276.906 307.871C276.906 307.113 276.715 306.52 276.332 306.09C275.949 305.652 275.402 305.434 274.691 305.434C273.926 305.434 273.32 305.699 272.875 306.23C272.438 306.754 272.219 307.445 272.219 308.305H268.82C268.82 307.266 269.066 306.316 269.559 305.457C270.059 304.598 270.762 303.926 271.668 303.441C272.574 302.949 273.602 302.703 274.75 302.703C276.508 302.703 277.871 303.125 278.84 303.969C279.816 304.812 280.305 306.004 280.305 307.543C280.305 308.387 280.086 309.246 279.648 310.121C279.211 310.996 278.461 312.016 277.398 313.18L273.52 317.27H280.855V320Z" fill="#42AE88"/>
</svg>
