<svg width="512" height="512" viewBox="0 0 512 512" fill="none" xmlns="http://www.w3.org/2000/svg">
<rect x="206" y="14" width="97" height="118" rx="10" fill="#FFCC18"/>
<rect x="74" y="112" width="363" height="389" rx="181.5" fill="#D5E3FF"/>
<path fill-rule="evenodd" clip-rule="evenodd" d="M101.963 196.665C84.2511 224.688 74 257.897 74 293.5V319.5C74 419.74 155.26 501 255.5 501C355.74 501 437 419.74 437 319.5V293.5C437 257.897 426.749 224.688 409.037 196.665H101.963Z" fill="#AC09A7"/>
<rect x="168" y="230" width="174" height="146" rx="25" fill="#F7DDF6"/>
<rect x="107" y="460" width="298" height="41" rx="20.5" fill="#8F0D8B"/>
<ellipse cx="254" cy="59" rx="12" ry="14" fill="#E7A52E"/>
<path d="M308.332 317.178V317.515C305.632 327.642 295.505 333.38 285.379 330.68L281.666 329.667L282.678 333.38C285.379 343.507 279.303 353.633 269.514 356.334H269.176C259.05 359.034 248.923 352.958 246.223 343.169L245.21 339.456L242.509 342.156C235.083 349.583 223.269 349.583 216.18 342.156L215.843 341.819C208.417 334.393 208.417 322.578 215.843 315.152L218.543 312.452L214.83 311.439C204.704 308.738 198.965 298.612 201.666 288.485V288.148C204.366 278.359 214.493 272.62 224.619 275.321L227.995 276.334L227.32 272.621C224.619 262.494 230.695 252.367 240.484 249.667H240.822C250.949 246.966 261.075 253.042 263.776 262.832L264.788 266.545L267.489 263.844C274.915 256.418 286.729 256.418 294.156 263.844L294.493 264.182C301.919 271.608 301.919 283.422 294.493 290.511L291.793 293.211L295.506 294.224C305.294 296.924 311.033 307.051 308.332 317.178Z" fill="#DC5485"/>
<path d="M254.999 323.253C266.185 323.253 275.252 314.185 275.252 303C275.252 291.814 266.185 282.747 254.999 282.747C243.814 282.747 234.746 291.814 234.746 303C234.746 314.185 243.814 323.253 254.999 323.253Z" fill="#F4C533"/>
<path d="M254.999 316.84C262.643 316.84 268.839 310.643 268.839 303C268.839 295.356 262.643 289.16 254.999 289.16C247.356 289.16 241.16 295.356 241.16 303C241.16 310.643 247.356 316.84 254.999 316.84Z" fill="#FED93D"/>
</svg>
