<svg width="512" height="512" viewBox="0 0 512 512" fill="none" xmlns="http://www.w3.org/2000/svg">
<circle cx="256" cy="256" r="248.5" fill="white" stroke="#2F80ED" stroke-width="15"/>
<path d="M388.848 193.91L359.52 147.094C356.899 142.891 352.244 140.315 347.274 140.315H164.709C159.738 140.315 155.083 142.891 152.462 147.094L123.134 193.91C107.996 218.086 121.417 251.707 149.706 255.548C151.739 255.819 153.818 255.955 155.897 255.955C169.273 255.955 181.112 250.08 189.246 240.997C197.38 250.08 209.265 255.955 222.596 255.955C235.972 255.955 247.812 250.08 255.946 240.997C264.08 250.08 275.965 255.955 289.296 255.955C302.672 255.955 314.511 250.08 322.645 240.997C330.825 250.08 342.664 255.955 355.995 255.955C358.119 255.955 360.153 255.819 362.186 255.548C390.565 251.752 404.032 218.131 388.848 193.91ZM356.086 270.461C351.567 270.461 347.093 269.783 342.755 268.743V313.842H169.227V268.743C164.889 269.738 160.416 270.461 155.897 270.461C153.185 270.461 150.429 270.28 147.763 269.918C145.232 269.557 142.747 268.969 140.351 268.291V357.224C140.351 365.223 146.814 371.685 154.812 371.685H357.26C365.259 371.685 371.721 365.223 371.721 357.224V268.291C369.281 269.015 366.841 269.602 364.31 269.918C361.554 270.28 358.842 270.461 356.086 270.461Z" fill="#2F80ED"/>
</svg>
